<svg width="351" height="351" viewBox="0 0 351 351" fill="none" xmlns="http://www.w3.org/2000/svg">
<path d="M343.665 311.456L184.552 152.339L194.616 142.273L199.038 146.696C203.487 151.144 210.698 151.143 215.145 146.696L254.604 107.237C259.049 102.79 259.053 95.5776 254.604 91.1306L166.811 3.33562C162.364 -1.11238 155.153 -1.11138 150.706 3.33562L111.247 42.7956C106.799 47.2426 106.799 54.4546 111.247 58.9016L115.669 63.3236L63.323 115.67L58.901 111.247C54.455 106.8 47.243 106.8 42.795 111.247L3.336 150.707C-1.112 155.154 -1.112 162.366 3.336 166.813L91.128 254.606C95.576 259.053 102.788 259.053 107.234 254.606L146.694 215.146C151.14 210.698 151.14 203.488 146.694 199.04L142.272 194.618L152.336 184.552L311.451 343.667C320.346 352.563 334.767 352.563 343.662 343.667C352.56 334.771 352.56 320.35 343.665 311.456Z" fill="#B71717"/>
</svg>
