<svg width="18" height="9" viewBox="0 0 18 9" fill="none" xmlns="http://www.w3.org/2000/svg">
<path d="M2.30539 6.05988L2.69229 6.1085L6.22851 2.93409C6.08923 2.48259 6.22078 1.96857 6.63089 1.60737C7.23444 1.05862 8.20942 1.05862 8.81298 1.60737C9.22309 1.96857 9.35463 2.48259 9.21535 2.93409L11.204 4.71926L11.5909 4.67064C11.7302 4.67064 11.8617 4.67064 11.9778 4.71926L14.7402 2.23948C14.686 2.13528 14.686 2.0172 14.686 1.89217C14.686 1.52372 14.8491 1.17036 15.1393 0.909828C15.4296 0.649295 15.8232 0.50293 16.2336 0.50293C16.6441 0.50293 17.0377 0.649295 17.3279 0.909828C17.6182 1.17036 17.7812 1.52372 17.7812 1.89217C17.7812 2.26061 17.6182 2.61397 17.3279 2.8745C17.0377 3.13504 16.6441 3.2814 16.2336 3.2814C16.0943 3.2814 15.9628 3.2814 15.8467 3.23278L13.0843 5.71257C13.1385 5.81676 13.1385 5.93484 13.1385 6.05988C13.1385 6.42832 12.9754 6.78168 12.6852 7.04221C12.395 7.30275 12.0013 7.44911 11.5909 7.44911C11.1804 7.44911 10.7868 7.30275 10.4966 7.04221C10.2064 6.78168 10.0433 6.42832 10.0433 6.05988L10.0975 5.71257L8.10883 3.9274C7.86121 3.97602 7.58265 3.97602 7.33504 3.9274L3.79881 7.1018L3.85298 7.44911C3.85298 7.81756 3.68993 8.17092 3.3997 8.43145C3.10947 8.69198 2.71584 8.83835 2.30539 8.83835C1.89495 8.83835 1.50132 8.69198 1.21109 8.43145C0.920861 8.17092 0.757813 7.81756 0.757812 7.44911C0.757812 7.08066 0.920861 6.72731 1.21109 6.46677C1.50132 6.20624 1.89495 6.05988 2.30539 6.05988Z" fill="white"/>
</svg>
