<svg width="35" height="36" viewBox="0 0 35 36" fill="none" xmlns="http://www.w3.org/2000/svg">
<path d="M18.5606 31.9425C17.682 31.9425 16.9697 32.7004 16.9697 33.6352C16.9697 34.5701 17.682 35.3279 18.5606 35.3279H31.2879C33.338 35.3279 35 33.5596 35 31.3783V4.29472C35 2.11337 33.338 0.345032 31.2879 0.345032H18.5606C17.682 0.345032 16.9697 1.10289 16.9697 2.03776C16.9697 2.97262 17.682 3.73048 18.5606 3.73048L31.2879 3.73048C31.5808 3.73048 31.8182 3.9831 31.8182 4.29472L31.8182 31.3783C31.8182 31.6899 31.5808 31.9425 31.2879 31.9425H18.5606Z" fill="#F5F5F5"/>
<path fill-rule="evenodd" clip-rule="evenodd" d="M0 20.3535C0 21.9116 1.18712 23.1747 2.65151 23.1747H12.4358C12.4497 23.3404 12.4641 23.5061 12.4793 23.6717L12.5939 24.9263C12.7687 26.8405 14.6791 27.9868 16.3091 27.1556C19.7756 25.388 23.1242 22.7353 25.7832 19.7815C26.7679 18.6876 26.7679 16.9626 25.7832 15.8687L25.5727 15.6349C22.9138 12.6811 19.7756 10.2622 16.3091 8.49456C14.6791 7.66341 12.7687 8.80975 12.5939 10.7239L12.4793 11.9785C12.4641 12.1441 12.4497 12.3098 12.4358 12.4755L2.65152 12.4755C1.18712 12.4755 0 13.7386 0 15.2967V20.3535ZM15.4917 21.2912C15.4015 20.4404 14.724 19.7893 13.9108 19.7893H3.18182L3.18182 15.861H13.9108C14.751 15.861 15.4464 15.1658 15.4987 14.2736C15.5372 13.6171 15.5863 12.9611 15.6462 12.306L15.6794 11.9419C18.4473 13.4595 20.9664 15.4461 23.1375 17.8251C22.231 18.8184 21.2638 19.7433 20.2432 20.5942C18.8194 21.7812 17.2916 22.8243 15.6794 23.7083L15.6462 23.3442C15.5863 22.6891 15.5372 22.0331 15.4987 21.3766C15.497 21.3479 15.4946 21.3194 15.4917 21.2912Z" fill="#F5F5F5"/>
</svg>
