<svg width="229" height="229" viewBox="0 0 229 229" fill="none" xmlns="http://www.w3.org/2000/svg">
<path d="M136.519 213.586V200.375C136.519 196.852 139.602 193.769 143.125 193.769H187.164C190.687 193.769 193.769 190.686 193.769 187.163V41.8365C193.769 38.3134 190.687 35.2307 187.164 35.2307H143.125C139.602 35.2307 136.519 32.148 136.519 28.6249V15.4134C136.519 11.8903 139.602 8.80762 143.125 8.80762H202.577C212.265 8.80762 220.192 16.7345 220.192 26.423V202.577C220.192 212.265 212.265 220.192 202.577 220.192H143.125C139.602 220.192 136.519 217.11 136.519 213.586Z" fill="white"/>
<path d="M10.5693 118.904C7.92696 116.261 7.92696 112.298 10.5693 109.656L70.0212 50.2037C72.6635 47.5613 76.627 47.5613 79.2693 50.2037L88.5173 59.4517C91.1597 62.094 91.1597 66.0575 88.5173 68.6998L63.8558 93.3614C61.2135 96.0037 62.975 100.848 66.9385 100.848H160.74C164.263 100.848 167.346 103.49 167.346 107.013V120.225C167.346 123.748 164.263 127.271 160.74 127.271H67.3789C63.4154 127.271 61.6539 132.115 64.2962 134.758L88.9577 159.419C91.6 162.061 91.6 166.025 88.9577 168.667L79.7096 177.915C77.0673 180.558 73.1039 180.558 70.4616 177.915L10.5693 118.904Z" fill="white"/>
</svg>
