<?xml version="1.0" encoding="iso-8859-1"?>
<!-- Generator: Adobe Illustrator 16.0.0, SVG Export Plug-In . SVG Version: 6.00 Build 0)  -->
<!DOCTYPE svg PUBLIC "-//W3C//DTD SVG 1.1//EN" "http://www.w3.org/Graphics/SVG/1.1/DTD/svg11.dtd">
<svg version="1.1" id="Capa_1" xmlns="http://www.w3.org/2000/svg" xmlns:xlink="http://www.w3.org/1999/xlink" x="0px" y="0px"
	 width="407.675px" height="407.675px" viewBox="0 0 407.675 407.675" style="enable-background:new 0 0 407.675 407.675;"
	 xml:space="preserve">
<g>
	<g>
		<path d="M164.684,348.361c-3.456,0-6.817-1.794-8.669-5.002c-2.762-4.782-1.122-10.897,3.66-13.659l218-125.863l-218-125.862
			c-4.783-2.761-6.422-8.877-3.66-13.66c2.761-4.783,8.878-6.421,13.66-3.66l233,134.522c3.094,1.786,5,5.087,5,8.66
			c0,3.573-1.906,6.874-5,8.66l-233,134.522C168.1,347.929,166.38,348.361,164.684,348.361z"/>
	</g>
	<g>
		<path d="M10.012,348.361c-3.456,0-6.817-1.794-8.67-5.002c-2.762-4.782-1.122-10.897,3.66-13.659l218-125.863l-218-125.862
			c-4.783-2.761-6.422-8.877-3.66-13.66c2.762-4.783,8.879-6.421,13.66-3.66l233,134.522c3.094,1.786,5,5.087,5,8.66
			c0,3.573-1.906,6.874-5,8.66l-233,134.522C13.428,347.929,11.709,348.361,10.012,348.361z"/>
	</g>
</g>
<g>
</g>
<g>
</g>
<g>
</g>
<g>
</g>
<g>
</g>
<g>
</g>
<g>
</g>
<g>
</g>
<g>
</g>
<g>
</g>
<g>
</g>
<g>
</g>
<g>
</g>
<g>
</g>
<g>
</g>
</svg>
