<svg width="12" height="9" viewBox="0 0 12 9" fill="none" xmlns="http://www.w3.org/2000/svg">
<path d="M6.21158 3.15306C5.80113 3.15306 5.4075 3.30857 5.11727 3.58539C4.82704 3.86221 4.66399 4.23765 4.66399 4.62912C4.66399 5.0206 4.82704 5.39604 5.11727 5.67286C5.4075 5.94968 5.80113 6.10519 6.21158 6.10519C6.62202 6.10519 7.01565 5.94968 7.30588 5.67286C7.59611 5.39604 7.75916 5.0206 7.75916 4.62912C7.75916 4.23765 7.59611 3.86221 7.30588 3.58539C7.01565 3.30857 6.62202 3.15306 6.21158 3.15306ZM6.21158 7.08923C5.5275 7.08923 4.87145 6.83004 4.38773 6.36868C3.90402 5.90732 3.63227 5.28159 3.63227 4.62912C3.63227 3.97666 3.90402 3.35093 4.38773 2.88957C4.87145 2.42821 5.5275 2.16902 6.21158 2.16902C6.89565 2.16902 7.55171 2.42821 8.03542 2.88957C8.51913 3.35093 8.79088 3.97666 8.79088 4.62912C8.79088 5.28159 8.51913 5.90732 8.03542 6.36868C7.55171 6.83004 6.89565 7.08923 6.21158 7.08923ZM6.21158 0.938965C3.63227 0.938965 1.42955 2.46915 0.537109 4.62912C1.42955 6.7891 3.63227 8.31928 6.21158 8.31928C8.79088 8.31928 10.9936 6.7891 11.886 4.62912C10.9936 2.46915 8.79088 0.938965 6.21158 0.938965Z" fill="white"/>
</svg>
