<svg width="512" height="512" viewBox="0 0 512 512" fill="none" xmlns="http://www.w3.org/2000/svg">
<path d="M332.64 64.58C313.18 43.57 286 32 256 32C225.84 32 198.57 43.5 179.2 64.38C159.62 85.49 150.08 114.18 152.32 145.16C156.76 206.28 203.27 256 256 256C308.73 256 355.16 206.29 359.67 145.18C361.94 114.48 352.34 85.85 332.64 64.58Z" fill="#2D2AD2"/>
<path d="M432 480H80.0001C75.3927 480.06 70.83 479.092 66.6437 477.167C62.4575 475.241 58.7531 472.407 55.8001 468.87C49.3001 461.1 46.6801 450.49 48.6201 439.76C57.0601 392.94 83.4001 353.61 124.8 326C161.58 301.49 208.17 288 256 288C303.83 288 350.42 301.5 387.2 326C428.6 353.6 454.94 392.93 463.38 439.75C465.32 450.48 462.7 461.09 456.2 468.86C453.248 472.399 449.544 475.235 445.358 477.162C441.172 479.089 436.608 480.059 432 480V480Z" fill="#2D2AD2"/>
</svg>
