<svg width="35" height="20" viewBox="0 0 35 20" fill="none" xmlns="http://www.w3.org/2000/svg">
<path d="M27.7083 17.1429V20H10.2083V17.1429C10.2083 17.1429 10.2083 11.4286 18.9583 11.4286C27.7083 11.4286 27.7083 17.1429 27.7083 17.1429ZM23.3333 4.28572C23.3333 3.43808 23.0767 2.60948 22.596 1.9047C22.1153 1.19992 21.432 0.650608 20.6326 0.326232C19.8331 0.00185694 18.9535 -0.0830145 18.1048 0.0823507C17.2561 0.247716 16.4766 0.65589 15.8647 1.25526C15.2529 1.85463 14.8362 2.61827 14.6674 3.44961C14.4986 4.28096 14.5852 5.14268 14.9164 5.92579C15.2475 6.7089 15.8082 7.37824 16.5277 7.84916C17.2472 8.32008 18.093 8.57143 18.9583 8.57143C20.1187 8.57143 21.2315 8.1199 22.0519 7.31617C22.8724 6.51245 23.3333 5.42236 23.3333 4.28572ZM28 11.5143C28.7972 12.2347 29.4399 13.1035 29.8906 14.0699C30.3413 15.0363 30.5909 16.0809 30.625 17.1429V20H35V17.1429C35 17.1429 35 12.2143 28 11.5143ZM26.25 1.63072e-06C25.8094 0.000259935 25.3715 0.0677349 24.9521 0.200001C25.8053 1.39853 26.2627 2.82455 26.2627 4.28572C26.2627 5.74688 25.8053 7.1729 24.9521 8.37143C25.3715 8.5037 25.8094 8.57117 26.25 8.57143C27.4103 8.57143 28.5231 8.1199 29.3436 7.31617C30.1641 6.51245 30.625 5.42236 30.625 4.28572C30.625 3.14907 30.1641 2.05899 29.3436 1.25526C28.5231 0.451531 27.4103 1.63072e-06 26.25 1.63072e-06ZM11.6667 7.14286H0V10H11.6667V7.14286Z" fill="white"/>
</svg>
