<svg width="60" height="35" viewBox="0 0 60 35" fill="none" xmlns="http://www.w3.org/2000/svg">
<path d="M47.5 30V35H17.5V30C17.5 30 17.5 20 32.5 20C47.5 20 47.5 30 47.5 30ZM40 7.5C40 6.01664 39.5601 4.56659 38.736 3.33323C37.9119 2.09986 36.7406 1.13856 35.3701 0.570907C33.9997 0.00324964 32.4917 -0.145275 31.0368 0.144114C29.582 0.433503 28.2456 1.14781 27.1967 2.1967C26.1478 3.2456 25.4335 4.58197 25.1441 6.03683C24.8547 7.49168 25.0032 8.99968 25.5709 10.3701C26.1386 11.7406 27.0999 12.9119 28.3332 13.736C29.5666 14.5601 31.0166 15 32.5 15C34.4891 15 36.3968 14.2098 37.8033 12.8033C39.2098 11.3968 40 9.48913 40 7.5ZM48 20.15C49.3666 21.4108 50.4683 22.9311 51.2409 24.6223C52.0136 26.3135 52.4416 28.1416 52.5 30V35H60V30C60 30 60 21.375 48 20.15ZM45 2.85376e-06C44.2447 0.000454887 43.494 0.118536 42.775 0.350003C44.2376 2.44743 45.0218 4.94296 45.0218 7.5C45.0218 10.057 44.2376 12.5526 42.775 14.65C43.494 14.8815 44.2447 14.9995 45 15C46.9891 15 48.8968 14.2098 50.3033 12.8033C51.7098 11.3968 52.5 9.48913 52.5 7.5C52.5 5.51088 51.7098 3.60322 50.3033 2.1967C48.8968 0.790179 46.9891 2.85376e-06 45 2.85376e-06ZM20 12.5H0V17.5H20V12.5Z" fill="#C01515"/>
</svg>
