<svg width="25" height="26" viewBox="0 0 25 26" fill="none" xmlns="http://www.w3.org/2000/svg">
<path d="M18.5345 16.7682C18.2755 16.5022 17.92 16.3522 17.5488 16.3522H17.1597C17.0469 16.3522 16.9387 16.3077 16.8585 16.2284V16.2284C16.6998 16.0716 16.6888 15.8198 16.8251 15.6431C18.0977 13.9938 18.8546 11.9137 18.8546 9.66266C18.8546 4.3259 14.6341 0 9.42731 0C4.22054 0 0 4.3259 0 9.66266C0 14.9994 4.22054 19.3253 9.42731 19.3253C11.6191 19.3253 13.6448 18.5526 15.2525 17.2529C15.4283 17.1108 15.6852 17.1221 15.8401 17.2867V17.2867C15.9132 17.3644 15.9539 17.4671 15.9539 17.5737V17.9867C15.9539 18.3684 16.1033 18.7348 16.3701 19.0077L22.0974 24.8663C22.7052 25.488 23.7057 25.4875 24.3128 24.8652V24.8652C24.8992 24.2642 24.8997 23.3054 24.3139 22.7038L18.5345 16.7682ZM9.42731 16.3522C5.81593 16.3522 2.90071 13.3642 2.90071 9.66266C2.90071 5.96112 5.81593 2.97313 9.42731 2.97313C13.0387 2.97313 15.9539 5.96112 15.9539 9.66266C15.9539 13.3642 13.0387 16.3522 9.42731 16.3522Z" fill="white"/>
</svg>
