<svg width="26" height="26" viewBox="0 0 26 26" fill="none" xmlns="http://www.w3.org/2000/svg">
<path d="M19.3892 16.7682C19.1303 16.5022 18.7748 16.3522 18.4036 16.3522H18.0145C17.9017 16.3522 17.7934 16.3077 17.7132 16.2284V16.2284C17.5545 16.0716 17.5435 15.8198 17.6799 15.6431C18.9524 13.9938 19.7094 11.9137 19.7094 9.66266C19.7094 4.3259 15.4888 0 10.282 0C5.07527 0 0.854736 4.3259 0.854736 9.66266C0.854736 14.9994 5.07527 19.3253 10.282 19.3253C12.4739 19.3253 14.4996 18.5526 16.1073 17.2529C16.283 17.1108 16.54 17.1221 16.6949 17.2867V17.2867C16.768 17.3644 16.8086 17.4671 16.8086 17.5737V17.9867C16.8086 18.3684 16.958 18.7348 17.2248 19.0077L22.9521 24.8663C23.5599 25.488 24.5604 25.4875 25.1676 24.8652V24.8652C25.7539 24.2642 25.7544 23.3054 25.1687 22.7038L19.3892 16.7682ZM10.282 16.3522C6.67066 16.3522 3.75545 13.3642 3.75545 9.66266C3.75545 5.96112 6.67066 2.97313 10.282 2.97313C13.8934 2.97313 16.8086 5.96112 16.8086 9.66266C16.8086 13.3642 13.8934 16.3522 10.282 16.3522Z" fill="#C6C6CB"/>
</svg>
