<svg width="248" height="248" viewBox="0 0 248 248" fill="none" xmlns="http://www.w3.org/2000/svg">
<path d="M222.863 1.92476C220.521 -0.418191 216.722 -0.418418 214.379 1.92426L128.104 88.179C125.76 90.5217 121.962 90.5214 119.619 88.1785L33.3656 1.92525C31.0225 -0.417894 27.2235 -0.417887 24.8804 1.92526L1.78631 25.0193C-0.556834 27.3625 -0.556836 31.1614 1.78631 33.5046L88.039 119.757C90.3822 122.1 90.3822 125.899 88.039 128.243L1.7863 214.495C-0.556841 216.838 -0.556834 220.637 1.78631 222.981L24.8804 246.075C27.2235 248.418 31.0225 248.418 33.3656 246.075L119.619 159.821C121.962 157.478 125.76 157.478 128.104 159.821L214.379 246.076C216.722 248.418 220.521 248.418 222.863 246.075L245.958 222.981C248.301 220.637 248.301 216.838 245.958 214.495L159.705 128.243C157.362 125.899 157.362 122.1 159.705 119.757L245.958 33.5046C248.301 31.1614 248.301 27.3625 245.958 25.0193L222.863 1.92476Z" fill="#1E1E1E"/>
</svg>
