<svg width="234" height="118" viewBox="0 0 234 118" fill="none" xmlns="http://www.w3.org/2000/svg">
<path d="M8 51C3.58172 51 0 54.5817 0 59C0 63.4183 3.58172 67 8 67V51ZM231.657 64.6569C234.781 61.5327 234.781 56.4673 231.657 53.3431L180.745 2.43146C177.621 -0.692738 172.556 -0.692738 169.431 2.43146C166.307 5.55565 166.307 10.621 169.431 13.7452L214.686 59L169.431 104.255C166.307 107.379 166.307 112.444 169.431 115.569C172.556 118.693 177.621 118.693 180.745 115.569L231.657 64.6569ZM8 67H226V51H8V67Z" fill="#515151"/>
<line x1="13" y1="84" x2="120" y2="84" stroke="#02C17D" stroke-width="10" stroke-linecap="round"/>
<line x1="63.9902" y1="33" x2="158.99" y2="33" stroke="#02C17D" stroke-width="10" stroke-linecap="round"/>
</svg>
